<?xml version="1.0" encoding="UTF-8"?>
<svg width="12px" height="23px" viewBox="0 0 12 23" version="1.1" xmlns="http://www.w3.org/2000/svg" xmlns:xlink="http://www.w3.org/1999/xlink">
    <!-- Generator: Sketch 43.2 (39069) - http://www.bohemiancoding.com/sketch -->
    <title>if_info-large_216254</title>
    <desc>Created with Sketch.</desc>
    <defs></defs>
    <g id="Page-1" stroke="none" stroke-width="1" fill="none" fill-rule="evenodd">
        <g id="if_info-large_216254" fill-rule="nonzero" fill="#C3266C">
            <path d="M9.49414133,20.164118 C9.48581192,20.1668944 8.71811779,20.4223297 8.05176484,20.4223297 C7.68388248,20.4223297 7.5353413,20.3459768 7.4881413,20.3126592 C7.25491776,20.1502356 6.82178835,19.8462121 7.563106,18.3691297 L8.95134132,15.6009885 C9.77456486,13.9573179 9.89672957,12.3677884 9.29145897,11.1239296 C8.7972472,10.1063531 7.84908248,9.40807074 6.62604717,9.15818838 C6.18597657,9.06795309 5.7389648,9.02352956 5.29611773,9.02352956 C2.72927063,9.02352956 1.00091766,10.5228237 0.928729427,10.5866825 C0.680235305,10.8060237 0.621929422,11.1697414 0.787129424,11.4557178 C0.953717662,11.7416943 1.29661179,11.8721884 1.61312944,11.7639061 C1.62007061,11.7611296 2.38915298,11.5043061 3.05550593,11.5043061 C3.42061182,11.5043061 3.56776476,11.580659 3.61357653,11.6125884 C3.8481883,11.7764002 4.28270595,12.0845884 3.54277653,13.5588943 L2.15454121,16.3284238 C1.32992943,17.9734826 1.20915296,19.5630121 1.81442356,20.8054827 C2.30863533,21.8230592 3.25541182,22.5213415 4.4812236,22.7712239 C4.91712949,22.8586827 5.36414126,22.9058827 5.80560009,22.9058827 C8.37383543,22.9058827 10.1035766,21.4065886 10.1757649,21.3427298 C10.424259,21.1247768 10.4825649,20.7596709 10.3173649,20.4736944 C10.1507766,20.1891062 9.80510604,20.0613886 9.49414133,20.164118 Z" id="Shape"></path>
            <circle id="Oval" cx="8.3294119" cy="4.16609418" r="3.47058829"></circle>
        </g>
    </g>
</svg>