<svg xmlns="http://www.w3.org/2000/svg" xmlns:xlink="http://www.w3.org/1999/xlink" width="59" height="59" viewBox="0 0 59 59">
    <defs>
        <path id="a" d="M0 29.5C0 13.208 13.208 0 29.5 0S59 13.208 59 29.5 45.792 59 29.5 59 0 45.792 0 29.5z"/>
    </defs>
    <g fill="none" fill-rule="evenodd">
        <mask id="b" fill="#fff">
            <use xlink:href="#a"/>
        </mask>
        <use fill="#FFF" xlink:href="#a"/>
        <path fill="#000" d="M29.501 13.767c-4.272 0-4.809.018-6.487.095-1.675.076-2.818.342-3.819.73a7.704 7.704 0 0 0-2.787 1.815 7.724 7.724 0 0 0-1.816 2.787c-.39 1-.655 2.144-.73 3.818-.076 1.679-.095 2.215-.095 6.488 0 4.273.019 4.808.095 6.486.077 1.675.342 2.818.73 3.819a7.71 7.71 0 0 0 1.815 2.787 7.704 7.704 0 0 0 2.786 1.816c1.001.389 2.145.654 3.82.73 1.678.077 2.214.096 6.487.096s4.807-.019 6.486-.095c1.675-.077 2.82-.342 3.82-.731a7.698 7.698 0 0 0 2.785-1.816 7.724 7.724 0 0 0 1.816-2.787c.387-1 .653-2.144.731-3.819.076-1.678.095-2.213.095-6.486s-.02-4.809-.095-6.487c-.078-1.675-.344-2.819-.73-3.819a7.722 7.722 0 0 0-1.817-2.787 7.69 7.69 0 0 0-2.786-1.814c-1.003-.39-2.147-.655-3.822-.731-1.678-.077-2.212-.095-6.486-.095h.004zm-1.411 2.835h1.411c4.201 0 4.7.015 6.358.09 1.534.07 2.367.327 2.921.542a4.866 4.866 0 0 1 1.808 1.177c.551.55.892 1.075 1.178 1.81.215.553.472 1.386.542 2.92.075 1.658.091 2.157.091 6.356 0 4.198-.016 4.697-.091 6.355-.07 1.534-.327 2.367-.542 2.92a4.865 4.865 0 0 1-1.178 1.808c-.55.55-1.073.892-1.808 1.177-.554.216-1.387.472-2.92.542-1.66.075-2.158.092-6.359.092-4.2 0-4.699-.017-6.357-.092-1.534-.07-2.367-.327-2.922-.542a4.873 4.873 0 0 1-1.809-1.177 4.876 4.876 0 0 1-1.177-1.809c-.216-.553-.472-1.386-.542-2.92-.076-1.659-.09-2.157-.09-6.358 0-4.202.014-4.697.09-6.356.07-1.534.326-2.367.542-2.921a4.875 4.875 0 0 1 1.177-1.81 4.883 4.883 0 0 1 1.81-1.177c.554-.216 1.387-.472 2.92-.542 1.452-.066 2.015-.086 4.947-.089v.004zm9.81 2.612a1.888 1.888 0 1 0 0 3.777 1.888 1.888 0 0 0 0-3.777zM29.5 21.42a8.08 8.08 0 1 0 .002 16.16 8.08 8.08 0 0 0-.002-16.16zm0 2.836a5.245 5.245 0 1 1 0 10.489 5.245 5.245 0 0 1 0-10.49z" mask="url(#b)"/>
    </g>
</svg>
