<?xml version="1.0" encoding="UTF-8"?>
<svg width="15px" height="30px" viewBox="0 0 15 30" version="1.1" xmlns="http://www.w3.org/2000/svg" xmlns:xlink="http://www.w3.org/1999/xlink">
    <!-- Generator: Sketch 43.2 (39069) - http://www.bohemiancoding.com/sketch -->
    <title>if_BT_iphone_905558</title>
    <desc>Created with Sketch.</desc>
    <defs></defs>
    <g id="Page-1" stroke="none" stroke-width="1" fill="none" fill-rule="evenodd">
        <g id="if_BT_iphone_905558" fill-rule="nonzero" fill="#C3266C">
            <path d="M2.09302326,1.13686838e-13 C1.54508581,5.51162792e-05 1.00009535,0.225194651 0.612645349,0.612645349 C0.225194651,1.00009535 5.51162791e-05,1.54508581 0,2.09302326 L0,27.9069767 C5.51162791e-05,28.4549163 0.225194651,28.9999047 0.612645349,29.3873581 C1.00009535,29.7748116 1.54508581,29.9999442 2.09302326,30 L12.5581395,30 C13.106077,29.9999442 13.6510674,29.7748116 14.0385174,29.3873581 C14.4259681,28.9999047 14.6511077,28.4549163 14.6511628,27.9069767 L14.6511628,2.09302326 C14.6511077,1.54508581 14.4259681,1.00009535 14.0385174,0.612645349 C13.6510674,0.225194651 13.106077,5.51162792e-05 12.5581395,1.13686838e-13 L2.09302326,1.13686838e-13 Z M6.22892442,1.39534884 C6.23401102,1.39523768 6.23909944,1.39523768 6.24418605,1.39534884 C6.25580668,1.39476714 6.26744914,1.39476714 6.27906977,1.39534884 L8.37209302,1.39534884 C8.49789625,1.39356967 8.6149121,1.4596658 8.67833293,1.56832774 C8.74175375,1.67698968 8.74175375,1.81138242 8.67833293,1.92004435 C8.6149121,2.02870629 8.49789625,2.09480243 8.37209302,2.09302326 L6.27906977,2.09302326 C6.08641231,2.1068705 5.91900716,1.96191618 5.90515991,1.76925872 C5.89131265,1.57660126 6.03626696,1.40919611 6.22892442,1.39534884 L6.22892442,1.39534884 Z M0.697674419,3.48837209 L13.9534884,3.48837209 L13.9534884,26.1627907 L0.697674419,26.1627907 L0.697674419,3.48837209 Z M7.3255814,26.8604651 C7.90355372,26.8604651 8.37209302,27.3290044 8.37209302,27.9069767 C8.37209302,28.4849512 7.90355372,28.9534884 7.3255814,28.9534884 C6.74760907,28.9534884 6.27906977,28.4849512 6.27906977,27.9069767 C6.27906977,27.3290044 6.74760907,26.8604651 7.3255814,26.8604651 Z" id="rect3010"></path>
        </g>
    </g>
</svg>