<svg xmlns="http://www.w3.org/2000/svg" width="211" height="78" viewBox="0 0 211 78">
    <g fill="none" fill-rule="nonzero">
        <path fill="#FFF" d="M42.804 24.99c0-9.073-.37-16.854-10.113-19.004-3.28-.728-5.75.113-7.131.976-1.384.867-2.516 2.208-3.392 4.032-.886 1.817-1.352 4.252-1.412 7.292l.05 49.466-6.683-2.49c0-7.466-.214-39.33-.077-46.575.143-7.425 2.303-12.75 6.487-15.98C24.715-.521 31.013-.498 35.747.887 50.352 5.173 51 18.03 51 30.246L50.994 78 42.8 74.653l.004-49.662"/>
        <path fill="#C4266D" d="M73.054 27.768c1.307-1.238 2.107-3.103 1.919-4.366-.538-3.553-5.804-4.06-12.228-2.726-1.148.24-3.06.756-4.077 1.122-.898.324-.88.524-.01.3.36-.087.722-.176 1.098-.255 6.586-1.365 12.494.148 13.194 3.387.166.78.018 1.589-.398 2.386-.22.423.097.53.502.152zM54.085 25.502c-.969.204-1.066 1.054-.131 1.14 2.074.204 3.14.66 3.477 1.938.75 2.858-10.352 11.465-24.198 14.955-13.842 3.491-24.395 1.614-25.427-1.138-.388-1.03.399-2.109 1.79-3.05 1.05-.589.464-1.64-1.05-.92-5.6 2.647-9.04 5.75-8.488 8.052 1.07 4.456 16.195 4.828 34.229.28 18.036-4.545 33.785-14.801 32.656-19.244-.55-2.158-5.642-3.21-12.858-2.013z"/>
        <path fill="#FFF" d="M77.566 49.097c-.285-1.216-.697-2.19-1.259-2.916a4.57 4.57 0 0 0-2.091-1.554c-.837-.311-1.796-.446-2.879-.412-1.08-.035-2.072.092-2.98.381a5.212 5.212 0 0 0-2.328 1.528c-.643.73-1.141 1.709-1.49 2.944-.348 1.238-.523 2.764-.523 4.583V68H58V55.342c0-4.433 1.127-7.934 3.375-10.498C63.625 42.28 66.857 41 71.08 41c2.334 0 4.324.336 5.961 1.005 1.64.674 2.975 1.628 4 2.865 1.033 1.238 1.781 2.739 2.252 4.5.47 1.765.708 3.754.708 5.973V68h-6.016V53.651c0-1.819-.14-3.333-.418-4.554M107.561 49.097c-.278-1.216-.697-2.19-1.254-2.916a4.564 4.564 0 0 0-2.092-1.554c-.837-.311-1.795-.446-2.878-.412-1.08-.035-2.073.092-2.98.381a5.222 5.222 0 0 0-2.328 1.528c-.644.73-1.141 1.709-1.49 2.944-.347 1.238-.52 2.764-.52 4.583V68H88V55.342c0-4.433 1.125-7.934 3.373-10.498C93.623 42.28 96.857 41 101.078 41c2.335 0 4.32.336 5.964 1.005 1.637.674 2.968 1.628 3.998 2.865 1.03 1.238 1.78 2.739 2.248 4.5.476 1.765.712 3.754.712 5.973V68h-6.02V53.651c0-1.819-.136-3.333-.419-4.554M146 68h-6.365v-.169l.054-5.61c-.621 1.16-1.233 2.114-1.842 2.861-.604.748-1.217 1.34-1.838 1.767a5.755 5.755 0 0 1-2.004.897 9.73 9.73 0 0 1-2.28.254c-2.414 0-4.462-.316-6.15-.952-1.68-.637-3.072-1.564-4.171-2.779-1.097-1.217-1.92-2.684-2.47-4.405-.548-1.722-.86-3.667-.934-5.838.074-2.165.386-4.114.935-5.834.55-1.719 1.372-3.187 2.469-4.404 1.099-1.213 2.49-2.15 4.172-2.804 1.687-.658 3.735-.984 6.15-.984 2.527 0 4.676.326 6.451.984 1.776.654 3.229 1.591 4.365 2.804 1.135 1.217 1.977 2.685 2.527 4.404.55 1.72.86 3.669.931 5.834V68zm-6.311-14.983c0-1.87-.184-3.43-.548-4.685-.368-1.251-.892-2.252-1.568-3.002a5.679 5.679 0 0 0-2.442-1.596c-.952-.32-1.996-.463-3.134-.424-1.133-.04-2.175.095-3.126.393a5.458 5.458 0 0 0-2.447 1.572c-.674.75-1.193 1.759-1.563 3.03-.364 1.27-.547 2.841-.547 4.712v1.966c0 1.872.183 3.442.547 4.711.37 1.277.889 2.283 1.563 3.033a5.491 5.491 0 0 0 2.447 1.571c.95.297 1.993.433 3.126.39 2.31.079 4.17-.894 5.576-2.913 1.406-2.023 2.116-4.902 2.116-8.643v-.115z"/>
        <path fill="#C4266D" d="M197 53.955V28h5.92v27.612c0 1.71.247 3.142.745 4.299.497 1.156 1.133 2.098 1.905 2.827a6.91 6.91 0 0 0 2.6 1.577c.958.324 1.9.5 2.83.534V68c-4.425-.107-7.867-1.407-10.321-3.9-2.45-2.492-3.679-5.874-3.679-10.145M162.169 64.315a6.908 6.908 0 0 1-2.599-1.576c-.771-.73-1.407-1.671-1.905-2.828-.495-1.157-.748-2.59-.748-4.3V44.42h5.773v-1.922c0-.675-.275-1.235-1.11-1.235h-4.663V28H151v25.956c0 .31.023.603.034.905.167 3.842 1.371 6.93 3.648 9.238a11.449 11.449 0 0 0 2.071 1.675c2.204 1.402 4.95 2.147 8.247 2.226v-3.151a9.995 9.995 0 0 1-2.831-.534M188.47 61.564c-1.121 2.487-3.789 4.056-7.882 4.056-5.65 0-8.236-3.273-8.236-9.488h21.511c.183-.822.144-2.938.1-3.35a19.481 19.481 0 0 0-.842-4.03 13.116 13.116 0 0 0-2.478-4.462c-1.101-1.29-2.495-2.327-4.18-3.112-1.688-.787-3.74-1.178-6.16-1.178-2.535 0-4.697.39-6.492 1.178-1.799.785-3.267 1.821-4.404 3.112a12.677 12.677 0 0 0-2.532 4.462 18.106 18.106 0 0 0-.875 5.276c.069 1.87.383 3.645.935 5.328a12.53 12.53 0 0 0 2.529 4.463c1.135 1.287 2.59 2.31 4.37 3.058 1.782.75 4.007 1.123 7.233 1.123 8.217 0 12.197-4.842 12.454-6.424l-5.05-.012zm-15.24-13.948c.383-1.233.92-2.216 1.63-2.951a5.964 5.964 0 0 1 2.547-1.58c.989-.311 2.075-.449 3.258-.412 1.18-.037 2.27.093 3.26.387.995.297 1.84.81 2.547 1.546.706.739 1.248 1.733 1.632 2.985.362 1.199.548 2.673.563 4.409h-16c.012-1.735.199-3.203.562-4.384z"/>
    </g>
</svg>
