<?xml version="1.0" encoding="UTF-8"?>
<svg width="28px" height="28px" viewBox="0 0 28 28" version="1.1" xmlns="http://www.w3.org/2000/svg" xmlns:xlink="http://www.w3.org/1999/xlink">
    <!-- Generator: Sketch 43.2 (39069) - http://www.bohemiancoding.com/sketch -->
    <title>if_price_tag_2639892</title>
    <desc>Created with Sketch.</desc>
    <defs></defs>
    <g id="Page-1" stroke="none" stroke-width="1" fill="none" fill-rule="evenodd">
        <g id="if_price_tag_2639892" fill-rule="nonzero" fill="#C3266C">
            <path d="M23.0000003,0 L16.1000002,0 C15.5112002,0 14.9224002,0.224250003 14.4739002,0.673900009 L0.673900009,14.4739002 C-0.224250003,15.3720502 -0.224250003,16.8279502 0.673900009,17.7261002 L9.87390014,26.9261004 C10.7720501,27.8242504 12.2279502,27.8242504 13.1261002,26.9261004 C13.5757502,26.4764504 26.4764504,13.5757502 26.9261004,13.1261002 C27.3757504,12.6776002 27.6000004,12.0888002 27.6000004,11.5000002 L27.6000004,4.60000006 C27.6000004,2.05965003 25.5403504,0 23.0000003,0 Z M23.0000003,6.9000001 C21.7292503,6.9000001 20.7000003,5.87075008 20.7000003,4.60000006 C20.7000003,3.32925005 21.7292503,2.30000003 23.0000003,2.30000003 C24.2707503,2.30000003 25.3000003,3.32925005 25.3000003,4.60000006 C25.3000003,5.87075008 24.2707503,6.9000001 23.0000003,6.9000001 Z" id="Shape"></path>
        </g>
    </g>
</svg>