<?xml version="1.0" encoding="UTF-8"?>
<svg width="41px" height="22px" viewBox="0 0 41 22" version="1.1" xmlns="http://www.w3.org/2000/svg" xmlns:xlink="http://www.w3.org/1999/xlink">
    <!-- Generator: Sketch 43.2 (39069) - http://www.bohemiancoding.com/sketch -->
    <title>if_Wireless_1737370</title>
    <desc>Created with Sketch.</desc>
    <defs></defs>
    <g id="Page-1" stroke="none" stroke-width="1" fill="none" fill-rule="evenodd">
        <g id="if_Wireless_1737370" fill-rule="nonzero" fill="#C3266C">
            <path d="M20.1897833,0.0539180328 C12.6894256,0.0539180328 5.65478696,3.54641803 0.380543061,9.88764754 C-0.121770174,10.4908443 -0.0397488133,11.3876148 0.564415122,11.8900984 C0.829767744,12.1112705 1.15217479,12.2196475 1.47277916,12.2196475 C1.88045236,12.2196475 2.28542156,12.0445492 2.56609686,11.7061639 C7.29088777,6.02727869 13.5491176,2.89931148 20.1896932,2.89931148 C26.8314404,2.89931148 33.0906617,6.02718852 37.8131993,11.7061639 C38.3155125,12.3105328 39.211979,12.392582 39.8160528,11.8900984 C40.419045,11.3886967 40.5012466,10.4908443 39.9999248,9.88764754 C34.7268527,3.54641803 27.6917634,0.0539180328 20.1897833,0.0539180328 Z" id="Shape"></path>
            <path d="M20.1897833,7.17245082 C14.5691569,7.17245082 9.30149271,9.78477049 5.35707646,14.5264016 C4.85476322,15.1308607 4.93678458,16.0274508 5.54103865,16.5300246 C6.14403085,17.0325984 7.04148875,16.9492869 7.54281052,16.3460902 C10.9377738,12.2657213 15.428939,10.0179344 20.1898734,10.0179344 C24.9524302,10.0179344 29.4435053,12.2645492 32.8368462,16.3460902 C33.1181524,16.6843852 33.5230315,16.858582 33.9307948,16.858582 C34.2509485,16.858582 34.5738062,16.7512869 34.8391588,16.5300246 C35.442782,16.027541 35.5248033,15.1308607 35.0230309,14.5264016 C31.0801469,9.78477049 25.811942,7.17245082 20.1897833,7.17245082 Z" id="Shape"></path>
            <path d="M20.1897833,14.8363852 C16.486654,14.8363852 13.021567,16.5508525 10.4321256,19.6645738 C9.92972225,20.2688525 10.0118337,21.164541 10.6159977,21.6670246 C10.8818911,21.8881967 11.2037573,21.9965738 11.5243617,21.9965738 C11.9325757,21.9965738 12.3375449,21.8213852 12.6182202,21.4830902 C14.657758,19.0317131 17.3463461,17.6806967 20.1897833,17.6806967 C23.0337613,17.6806967 25.7228001,19.0317131 27.761797,21.4830902 C28.2641103,22.0873689 29.1600359,22.1695082 29.7635689,21.6681066 C30.3676427,21.165623 30.4497542,20.2688525 29.9479817,19.6645738 C27.358991,16.5507623 23.8939941,14.8363852 20.1897833,14.8363852 Z" id="Shape"></path>
        </g>
    </g>
</svg>