<?xml version="1.0" encoding="UTF-8"?>
<svg width="29px" height="27px" viewBox="0 0 29 27" version="1.1" xmlns="http://www.w3.org/2000/svg" xmlns:xlink="http://www.w3.org/1999/xlink">
    <!-- Generator: Sketch 43.2 (39069) - http://www.bohemiancoding.com/sketch -->
    <title>if_sms_2639922</title>
    <desc>Created with Sketch.</desc>
    <defs></defs>
    <g id="Page-1" stroke="none" stroke-width="1" fill="none" fill-rule="evenodd">
        <g id="if_sms_2639922" transform="translate(14.150000, 13.061538) scale(-1, 1) translate(-14.150000, -13.061538) " fill-rule="nonzero" fill="#C3266C">
            <path d="M7.1969075,20.0244264 C7.27527673,21.6973917 7.0412575,23.9973109 4.70433064,25.0716224 L4.89807679,26.1121916 C8.05134978,26.1121916 11.5366035,24.0201686 12.8786766,20.4979071 L7.1969075,20.0244264 Z" id="Shape"></path>
            <path d="M23.9461532,0 L4.35384604,0 C1.94943456,0 0,1.94943456 0,4.35384604 L0,17.4153841 C0,19.8197956 1.94943456,21.7692302 4.35384604,21.7692302 L23.9461532,21.7692302 C26.3505647,21.7692302 28.2999992,19.8197956 28.2999992,17.4153841 L28.2999992,4.35384604 C28.2999992,1.94943456 26.3505647,0 23.9461532,0 Z M14.1499996,13.0615381 C12.9472497,13.0615381 11.9730766,12.0873651 11.9730766,10.8846151 C11.9730766,9.68186512 12.9472497,8.70769207 14.1499996,8.70769207 C15.3527496,8.70769207 16.3269226,9.68186512 16.3269226,10.8846151 C16.3269226,12.0873651 15.3527496,13.0615381 14.1499996,13.0615381 Z M20.6807687,13.0615381 C19.4780187,13.0615381 18.5038457,12.0873651 18.5038457,10.8846151 C18.5038457,9.68186512 19.4780187,8.70769207 20.6807687,8.70769207 C21.8835186,8.70769207 22.8576917,9.68186512 22.8576917,10.8846151 C22.8576917,12.0873651 21.8835186,13.0615381 20.6807687,13.0615381 Z M7.61923056,13.0615381 C6.4164806,13.0615381 5.44230755,12.0873651 5.44230755,10.8846151 C5.44230755,9.68186512 6.4164806,8.70769207 7.61923056,8.70769207 C8.82198053,8.70769207 9.79615358,9.68186512 9.79615358,10.8846151 C9.79615358,12.0873651 8.82198053,13.0615381 7.61923056,13.0615381 Z" id="Shape"></path>
        </g>
    </g>
</svg>